<?xml version="1.0" standalone="no"?>
<!DOCTYPE svg PUBLIC "-//W3C//DTD SVG 20010904//EN"
 "http://www.w3.org/TR/2001/REC-SVG-20010904/DTD/svg10.dtd">
<svg version="1.0" xmlns="http://www.w3.org/2000/svg"
 width="1050.000000pt" height="1050.000000pt" viewBox="0 0 1050.000000 1050.000000"
 preserveAspectRatio="xMidYMid meet">
<metadata>
Created by potrace 1.11, written by Peter Selinger 2001-2013
</metadata>
<g transform="translate(0.000000,1050.000000) scale(0.100000,-0.100000)"
fill="#000000" stroke="none">
<path d="M5017 9030 l-479 -5 -53 -102 c-29 -56 -97 -184 -150 -285 -95 -178
-125 -234 -235 -443 -29 -55 -65 -122 -80 -150 -15 -27 -58 -108 -95 -180 -37
-71 -80 -152 -95 -180 -15 -27 -53 -99 -85 -160 -32 -60 -75 -141 -95 -180
-56 -105 -286 -539 -335 -630 -23 -44 -71 -134 -105 -200 -34 -66 -71 -133
-80 -150 -10 -16 -46 -84 -80 -150 -35 -66 -77 -147 -95 -180 -18 -33 -63
-118 -100 -190 -37 -71 -71 -134 -76 -140 -22 -24 -9 -40 34 -41 51 0 240 -14
264 -18 10 -2 41 -7 68 -10 104 -13 132 -18 205 -32 199 -38 440 -95 648 -154
79 -22 147 -38 151 -36 5 3 43 74 86 158 43 84 113 221 155 303 43 83 126 245
185 360 59 116 136 264 170 330 34 66 125 242 201 390 76 149 177 347 225 440
48 94 136 266 196 382 59 117 110 213 113 213 3 0 10 -10 16 -23 12 -26 226
-444 324 -632 37 -71 111 -215 165 -320 118 -229 229 -445 340 -660 45 -88
129 -250 185 -360 57 -110 130 -252 163 -315 163 -314 327 -638 327 -646 -1
-16 -334 -254 -356 -254 -3 0 -18 -8 -32 -18 -31 -21 -185 -84 -252 -103 -25
-7 -49 -14 -55 -15 -5 -2 -62 -13 -125 -25 -192 -37 -580 -30 -800 16 -14 2
-88 19 -165 36 -77 17 -147 32 -155 34 -89 19 -473 128 -740 210 -226 70 -332
102 -500 150 -107 31 -206 59 -220 61 -14 3 -77 18 -140 34 -98 24 -166 39
-300 65 -88 17 -183 32 -262 41 -29 3 -64 7 -78 10 -137 23 -637 23 -770 0
-14 -2 -59 -10 -100 -16 -365 -58 -769 -225 -1125 -464 -114 -77 -299 -215
-320 -240 -5 -6 -37 -33 -70 -61 -108 -89 -421 -412 -410 -423 4 -5 184 89
394 207 229 128 411 199 551 215 30 4 73 9 95 12 198 27 270 31 465 28 118 -1
231 -5 250 -8 19 -2 62 -7 95 -11 68 -7 82 -9 182 -25 l73 -12 -49 -91 c-26
-51 -74 -141 -106 -202 -32 -60 -72 -137 -90 -170 -18 -33 -53 -98 -77 -145
-25 -47 -66 -123 -90 -170 -25 -47 -69 -130 -98 -185 -29 -55 -67 -127 -85
-160 -18 -33 -56 -105 -85 -160 -29 -55 -69 -131 -90 -170 -20 -38 -68 -128
-105 -200 -37 -71 -71 -134 -75 -140 -4 -5 -40 -73 -80 -150 -40 -77 -87 -167
-105 -200 -18 -33 -53 -98 -77 -145 -60 -112 -122 -229 -168 -315 -21 -38 -66
-124 -100 -190 -35 -66 -74 -140 -87 -164 -12 -24 -23 -46 -23 -48 0 -2 360
-2 801 -1 l800 3 123 240 c67 132 207 407 311 610 103 204 238 469 300 590 62
121 177 346 255 500 284 557 363 710 369 717 4 5 128 -32 276 -81 533 -175
798 -259 958 -301 42 -11 111 -29 152 -40 41 -11 83 -22 93 -24 9 -1 31 -6 47
-10 87 -21 112 -26 135 -30 14 -3 50 -10 80 -16 55 -11 76 -14 140 -25 19 -3
42 -7 50 -10 69 -18 383 -25 500 -12 191 22 379 69 545 135 137 54 311 140
343 169 7 7 17 13 22 13 9 0 208 141 254 180 58 50 150 136 204 193 31 31 59
57 63 57 4 0 18 -21 31 -47 13 -27 106 -208 206 -404 l182 -357 -63 -57 c-199
-183 -516 -376 -802 -490 -66 -26 -122 -49 -124 -52 -11 -9 151 16 265 41 59
13 190 50 199 56 6 4 28 13 50 20 76 24 236 99 324 152 34 21 65 38 67 38 2 0
39 25 83 55 44 30 83 55 88 55 5 0 16 -15 24 -32 14 -30 200 -396 424 -833 51
-99 170 -333 265 -520 96 -187 190 -371 209 -410 l36 -70 837 -3 837 -2 -41
77 c-22 43 -60 114 -83 158 -23 44 -64 121 -90 170 -78 148 -136 256 -170 320
-18 33 -56 105 -85 160 -29 55 -72 136 -95 180 -24 44 -63 118 -88 165 -24 47
-60 114 -79 150 -19 36 -65 124 -103 195 -37 72 -80 153 -95 180 -15 28 -51
95 -80 150 -29 55 -69 132 -90 170 -20 39 -63 120 -95 180 -32 61 -70 133 -85
160 -15 28 -51 95 -80 150 -29 55 -70 132 -90 170 -21 39 -61 115 -90 170 -29
55 -71 134 -94 176 l-40 77 37 113 c31 98 52 171 73 254 39 155 68 399 68 560
0 94 -12 289 -19 315 -2 8 -7 38 -10 65 -18 163 -92 441 -171 644 -49 125
-183 401 -204 421 -3 3 -24 37 -47 75 -42 72 -199 287 -263 360 -93 107 -299
300 -405 381 -157 117 -263 182 -470 287 -174 88 -281 128 -442 167 l-92 22
-39 77 c-39 77 -112 216 -206 391 -28 52 -71 135 -96 183 l-45 87 -215 0
c-118 0 -343 2 -500 3 -157 1 -500 0 -763 -3z m2743 -2211 c25 -29 67 -79 93
-113 27 -34 55 -69 62 -78 20 -24 185 -268 185 -273 0 -2 14 -28 31 -57 121
-203 240 -493 290 -706 21 -89 58 -292 53 -292 -3 0 -66 116 -139 255 -26 50
-64 122 -85 160 -38 71 -81 153 -185 350 -32 61 -70 133 -85 160 -15 28 -62
116 -104 198 -43 81 -82 147 -87 147 -6 0 -8 4 -4 10 3 5 1 17 -5 27 -5 10
-23 65 -39 123 -16 58 -32 113 -36 123 -13 32 10 17 55 -34z"/>
</g>
</svg>
